<?xml version="1.0" encoding="UTF-8" standalone="no"?>
<svg width="74px" height="58px" viewBox="0 0 74 58" version="1.1" xmlns="http://www.w3.org/2000/svg" xmlns:xlink="http://www.w3.org/1999/xlink" xmlns:sketch="http://www.bohemiancoding.com/sketch/ns">
    <!-- Generator: Sketch 3.0.4 (8054) - http://www.bohemiancoding.com/sketch -->
    <title>Pot + Add Picture</title>
    <desc>Created with Sketch.</desc>
    <defs></defs>
    <g id="Page-1" stroke="none" stroke-width="1" fill="none" fill-rule="evenodd" sketch:type="MSPage">
        <g id="Create-Guide-Walkthrough-Card-1" sketch:type="MSArtboardGroup" transform="translate(-622.000000, -184.000000)">
            <g id="pot-2" sketch:type="MSLayerGroup" transform="translate(520.000000, 161.000000)">
                <g id="Pot-+-Add-Picture" transform="translate(102.000000, 24.000000)">
                    <g id="Pot" transform="translate(18.000000, 0.000000)" stroke="#CDCBCB" fill="#DCDCDC" opacity="0.5" sketch:type="MSShapeGroup">
                        <path d="M2.4127206,5.45655518 C1.85743192,5.45655518 1.52173633,5.89136931 1.66144905,6.42213817 L7.18336556,27.399909 C7.46448507,28.4678826 8.57896556,29.3336462 9.69607814,29.3336462 L27.6123691,29.3336462 C28.7189824,29.3336462 29.8563957,28.4697419 30.1540081,27.399909 L35.9897268,6.42213817 C36.1380768,5.88886141 35.8176922,5.45655518 35.2528992,5.45655518 L2.4127206,5.45655518 Z" id="Path-4"></path>
                        <path d="M36.3172612,3.79314731 C36.8642961,3.79245223 37.4616671,3.36213013 37.6463265,2.84651623 L38.0100486,1.83091602 C38.363191,0.844856977 37.8062502,0.0454981804 36.7444571,0.0454981804 L1.0576914,0.0454981804 C0.00558216665,0.0454981804 -0.60344862,0.868618868 -0.308407893,1.86444397 L-0.00701898679,2.88169552 C0.149614808,3.41036784 0.71826646,3.83838023 1.26708577,3.83768289 L36.3172612,3.79314731 Z" id="Path-5"></path>
                    </g>
                    <text id="Choose-a-Crop" sketch:type="MSTextLayer" font-family="Source Sans Pro" font-size="12" font-weight="526" fill="#EEEEEE">
                        <tspan x="0" y="54">Choose a Crop</tspan>
                    </text>
                </g>
            </g>
        </g>
    </g>
</svg>