<svg xmlns="http://www.w3.org/2000/svg" xmlns:xlink="http://www.w3.org/1999/xlink" width="74" height="58" version="1.1" viewBox="0 0 74 58"><title>Pot + Add Picture</title><desc>Created with Sketch.</desc><g id="Page-1" fill="none" fill-rule="evenodd" stroke="none" stroke-width="1"><g id="Create-Guide-Walkthrough-Card-1" transform="translate(-622.000000, -184.000000)"><g id="pot-2" transform="translate(520.000000, 161.000000)"><g id="Pot-+-Add-Picture" transform="translate(102.000000, 24.000000)"><g id="Pot" fill="#DCDCDC" stroke="#CDCBCB" opacity=".5" transform="translate(18.000000, 0.000000)"><path id="Path-4" d="M2.4127206,5.45655518 C1.85743192,5.45655518 1.52173633,5.89136931 1.66144905,6.42213817 L7.18336556,27.399909 C7.46448507,28.4678826 8.57896556,29.3336462 9.69607814,29.3336462 L27.6123691,29.3336462 C28.7189824,29.3336462 29.8563957,28.4697419 30.1540081,27.399909 L35.9897268,6.42213817 C36.1380768,5.88886141 35.8176922,5.45655518 35.2528992,5.45655518 L2.4127206,5.45655518 Z"/><path id="Path-5" d="M36.3172612,3.79314731 C36.8642961,3.79245223 37.4616671,3.36213013 37.6463265,2.84651623 L38.0100486,1.83091602 C38.363191,0.844856977 37.8062502,0.0454981804 36.7444571,0.0454981804 L1.0576914,0.0454981804 C0.00558216665,0.0454981804 -0.60344862,0.868618868 -0.308407893,1.86444397 L-0.00701898679,2.88169552 C0.149614808,3.41036784 0.71826646,3.83838023 1.26708577,3.83768289 L36.3172612,3.79314731 Z"/></g><text id="Choose-a-Crop" fill="#EEE" font-family="Source Sans Pro" font-size="12" font-weight="526"><tspan x="0" y="54">Choose a Crop</tspan></text></g></g></g></g></svg>