<?xml version="1.0" encoding="utf-8"?>
<!-- Generator: Adobe Illustrator 17.0.2, SVG Export Plug-In . SVG Version: 6.00 Build 0)  -->
<!DOCTYPE svg PUBLIC "-//W3C//DTD SVG 1.1//EN" "http://www.w3.org/Graphics/SVG/1.1/DTD/svg11.dtd">
<svg version="1.1" xmlns="http://www.w3.org/2000/svg" xmlns:xlink="http://www.w3.org/1999/xlink" x="0px" y="0px" width="810px"
	 height="147px" viewBox="0 0 810 147" enable-background="new 0 0 810 147" xml:space="preserve">
<g id="penFarm">
	<text transform="matrix(1.0016 0 0 1 127.5669 114.8027)"><tspan x="0" y="0" fill="#FFFFFF" font-family="'SourceSansPro-Black'" font-size="176.3" letter-spacing="-4.992">pe</tspan><tspan x="184.405" y="0" fill="#FFFFFF" font-family="'SourceSansPro-Black'" font-size="176.3">n</tspan><tspan x="287.009" y="0" fill="#FFFFFF" font-family="'SourceSansPro-Black'" font-size="176.3" letter-spacing="-4.992">Farm</tspan></text>
</g>
<g id="_x35_76px-Opensource.svg_xA0_Image_1_">
	<path fill="#FFFFFF" d="M65.227,1.847c-32.853,0-59.486,26.633-59.486,59.486c0,25.5,16.05,47.245,38.597,55.704l13.708-36.555
		c-7.75-2.907-13.268-10.382-13.268-19.148c0-11.293,9.155-20.449,20.448-20.449c11.293,0,20.449,9.155,20.449,20.449
		c0,8.766-5.518,16.241-13.268,19.148l13.708,36.555c22.546-8.458,38.597-30.203,38.597-55.704
		C124.713,28.48,98.081,1.847,65.227,1.847z"/>
</g>
</svg>
