<?xml version="1.0" standalone="yes"?>

<svg version="1.1" viewBox="0.0 0.0 672.0 672.0" fill="none" stroke="none" stroke-linecap="square" stroke-miterlimit="10" xmlns="http://www.w3.org/2000/svg" xmlns:xlink="http://www.w3.org/1999/xlink"><clipPath id="p.0"><path d="m0 0l672.0 0l0 672.0l-672.0 0l0 -672.0z" clip-rule="nonzero"></path></clipPath><g clip-path="url(#p.0)"><path fill="#000000" fill-opacity="0.0" d="m0 0l672.0 0l0 672.0l-672.0 0z" fill-rule="evenodd"></path><path fill="#219653" d="m186.447 231.06728c25.070969 0 43.109833 8.472443 54.116608 25.417313c11.00676 16.944885 16.510147 42.362213 16.510147 76.25195c0 34.093903 -5.4694214 59.783417 -16.408234 77.06857c-10.870895 17.217072 -28.739899 25.825623 -53.60704 25.825623c-25.070969 0 -43.177765 -8.676605 -54.320435 -26.029785c-11.074699 -17.35318 -16.61206 -42.97467 -16.61206 -76.86441c0 -34.093903 5.5033875 -59.545227 16.510147 -76.354034c11.006775 -16.8768 28.943726 -25.315231 53.810867 -25.315231zm1.2229767 -75.33324c-52.791718 0 -93.76135 15.515793 -122.9089 46.547363c-29.147552 31.031586 -43.72133 74.51663 -43.72133 130.45514c0 35.931305 6.7263584 67.371185 20.179073 94.31967c13.452717 26.948486 32.714558 47.6362 57.785526 62.06317c25.070969 14.358887 54.014687 21.53836 86.83117 21.53836c52.38405 0 93.251785 -15.71994 122.603134 -47.15985c29.35138 -31.43988 44.02707 -75.02701 44.02707 -130.76135c0 -35.931305 -6.726349 -67.269104 -20.179047 -94.01344c-13.452728 -26.744324 -32.71457 -47.261917 -57.785553 -61.552765c-25.070953 -14.290863 -54.01468 -21.436295 -86.83115 -21.436295z" fill-rule="evenodd"></path><path fill="#219653" d="m565.26324 24.66644c-42.192627 0 -72.868866 8.982826 -92.02881 26.948479c-19.159912 17.965649 -28.739899 46.445293 -28.739899 85.438934l0 25.111069l-51.3649 25.111084l0 45.01622l51.3649 0l0 272.24084l93.2518 0l0 -272.24084l80.71625 0l0 -70.127304l-80.71625 0l0 -21.43628c0 -12.249313 2.9555054 -22.286934 8.866577 -30.112885c5.9110107 -7.894005 15.490967 -11.841003 28.739868 -11.841003c15.898682 0 33.22412 2.9602509 51.97638 8.880753l23.848022 -68.59613c-25.070984 -9.595291 -53.708984 -14.392937 -85.91394 -14.392937z" fill-rule="evenodd"></path><path stroke="#219653" stroke-width="24.0" stroke-linejoin="round" stroke-linecap="butt" d="m186.447 231.06728c25.070969 0 43.109833 8.472443 54.116608 25.417313c11.00676 16.944885 16.510147 42.362213 16.510147 76.25195c0 34.093903 -5.4694214 59.783417 -16.408234 77.06857c-10.870895 17.217072 -28.739899 25.825623 -53.60704 25.825623c-25.070969 0 -43.177765 -8.676605 -54.320435 -26.029785c-11.074699 -17.35318 -16.61206 -42.97467 -16.61206 -76.86441c0 -34.093903 5.5033875 -59.545227 16.510147 -76.354034c11.006775 -16.8768 28.943726 -25.315231 53.810867 -25.315231zm1.2229767 -75.33324c-52.791718 0 -93.76135 15.515793 -122.9089 46.547363c-29.147552 31.031586 -43.72133 74.51663 -43.72133 130.45514c0 35.931305 6.7263584 67.371185 20.179073 94.31967c13.452717 26.948486 32.714558 47.6362 57.785526 62.06317c25.070969 14.358887 54.014687 21.53836 86.83117 21.53836c52.38405 0 93.251785 -15.71994 122.603134 -47.15985c29.35138 -31.43988 44.02707 -75.02701 44.02707 -130.76135c0 -35.931305 -6.726349 -67.269104 -20.179047 -94.01344c-13.452728 -26.744324 -32.71457 -47.261917 -57.785553 -61.552765c-25.070953 -14.290863 -54.01468 -21.436295 -86.83115 -21.436295z" fill-rule="evenodd"></path><path stroke="#219653" stroke-width="24.0" stroke-linejoin="round" stroke-linecap="butt" d="m565.26324 24.66644c-42.192627 0 -72.868866 8.982826 -92.02881 26.948479c-19.159912 17.965649 -28.739899 46.445293 -28.739899 85.438934l0 25.111069l-51.3649 25.111084l0 45.01622l51.3649 0l0 272.24084l93.2518 0l0 -272.24084l80.71625 0l0 -70.127304l-80.71625 0l0 -21.43628c0 -12.249313 2.9555054 -22.286934 8.866577 -30.112885c5.9110107 -7.894005 15.490967 -11.841003 28.739868 -11.841003c15.898682 0 33.22412 2.9602509 51.97638 8.880753l23.848022 -68.59613c-25.070984 -9.595291 -53.708984 -14.392937 -85.91394 -14.392937z" fill-rule="evenodd"></path></g></svg>

