<?xml version="1.0" standalone="yes"?>

<svg version="1.1" viewBox="0.0 0.0 3084.1076115485566 679.6325459317585" fill="none" stroke="none" stroke-linecap="square" stroke-miterlimit="10" xmlns="http://www.w3.org/2000/svg" xmlns:xlink="http://www.w3.org/1999/xlink"><clipPath id="p.0"><path d="m0 0l3084.1077 0l0 679.63257l-3084.1077 0l0 -679.63257z" clip-rule="nonzero"></path></clipPath><g clip-path="url(#p.0)"><path fill="#000000" fill-opacity="0.0" d="m0 0l3084.1077 0l0 679.63257l-3084.1077 0z" fill-rule="evenodd"></path><path fill="#219653" d="m202.16617 231.06728c25.070969 0 43.109833 8.472443 54.116608 25.417313c11.006775 16.944885 16.510132 42.362213 16.510132 76.25195c0 34.093903 -5.469391 59.783417 -16.408234 77.06857c-10.87088 17.217072 -28.739883 25.825623 -53.607025 25.825623c-25.070969 0 -43.177765 -8.676605 -54.320435 -26.029785c-11.074707 -17.35318 -16.61206 -42.97467 -16.61206 -76.86441c0 -34.093903 5.5033875 -59.545227 16.510147 -76.354034c11.006775 -16.8768 28.943726 -25.315231 53.810867 -25.315231zm1.2229767 -75.33324c-52.791718 0 -93.76135 15.515793 -122.908905 46.547363c-29.147549 31.031586 -43.72132 74.51663 -43.72132 130.45514c0 35.931305 6.7263565 67.371185 20.17907 94.31967c13.452721 26.948486 32.71456 47.6362 57.78553 62.06317c25.070961 14.358887 54.014687 21.53836 86.831154 21.53836c52.384064 0 93.251785 -15.71994 122.603165 -47.15985c29.35138 -31.43988 44.02707 -75.02701 44.02707 -130.76135c0 -35.931305 -6.726349 -67.269104 -20.179077 -94.01344c-13.452728 -26.744324 -32.71457 -47.261917 -57.785522 -61.552765c-25.070984 -14.290863 -54.014694 -21.436295 -86.83116 -21.436295z" fill-rule="evenodd"></path><path fill="#219653" d="m605.4419 230.45482c22.01355 0 38.150024 8.438416 48.409363 25.315231c10.327393 16.808777 15.491028 42.05597 15.491028 75.74155c0 69.004456 -20.892456 103.50668 -62.67743 103.50668c-23.644165 0 -40.93567 -7.9620667 -51.87451 -23.88617c-10.87085 -15.924103 -16.306274 -42.2601 -16.306274 -79.008026l0 -10.105682c0.4076538 -32.664825 5.9110107 -56.074615 16.510132 -70.22937c10.599121 -14.222809 27.414978 -21.334213 50.447693 -21.334213zm29.96283 -74.72078c-42.804077 0 -75.11096 16.94487 -96.920654 50.834625l-4.2804565 0l-13.146973 -44.403748l-75.82437 0l0 493.03467l93.2518 0l0 -138.72339c0 -4.491455 -1.6306763 -21.028015 -4.8919067 -49.60974l4.8919067 0c22.828857 29.194183 54.320435 43.79129 94.47473 43.79129c26.7016 0 49.93811 -7.0433655 69.70953 -21.130066c19.771423 -14.0867 34.99066 -34.60428 45.657715 -61.552765c10.734985 -26.948486 16.102478 -58.69461 16.102478 -95.23837c0 -55.53018 -11.414429 -98.91316 -34.243286 -130.1489c-22.828857 -31.235748 -54.422363 -46.853607 -94.78052 -46.853607z" fill-rule="evenodd"></path><path fill="#219653" d="m983.03516 222.18654c19.771423 0 35.466248 6.2947845 47.084473 18.884354c11.618286 12.521515 17.631226 30.317017 18.03894 53.386566l-130.85828 0c1.6306152 -23.06955 8.0512085 -40.86505 19.26184 -53.386566c11.210571 -12.589569 26.7016 -18.884354 46.473022 -18.884354zm-0.61151123 -66.4525c-50.54956 0 -90.1604 15.685928 -118.83234 47.057755c-28.603943 31.303802 -42.906006 75.63948 -42.906006 133.00706c0 55.734375 15.491028 98.8111 46.473022 129.23022c30.982056 30.419098 73.98993 45.628662 129.0238 45.628662c26.7016 0 49.32666 -2.0075073 67.875 -6.022583c18.548462 -3.946991 35.97583 -10.003601 52.282227 -18.1698l0 -72.270905c-19.97522 9.391113 -39.135254 16.230316 -57.47986 20.517578c-18.344604 4.287262 -37.81024 6.4308777 -58.396973 6.4308777c-26.497803 0 -47.084534 -7.45166 -61.760193 -22.35498c-14.67572 -14.90332 -22.523132 -35.62506 -23.542236 -62.165253l220.4411 0l0 -45.32242c0 -48.58893 -13.452759 -86.663864 -40.358154 -114.22481c-26.905396 -27.560944 -64.51196 -41.341415 -112.8194 -41.341415z" fill-rule="evenodd"></path><path fill="#219653" d="m1405.5728 155.73404c-23.236572 0 -43.993164 4.253235 -62.269775 12.759689c-18.208862 8.438431 -32.510742 20.925903 -42.906006 37.46248l-5.197632 0l-12.535522 -43.79129l-71.23828 0l0 342.36816l93.25183 0l0 -161.0784c0 -40.4227 5.809082 -69.344696 17.427368 -86.76593c11.618286 -17.489273 30.472412 -26.233932 56.5625 -26.233932c19.159912 0 33.122192 6.1927185 41.88684 18.57811c8.764648 12.317383 13.146973 30.827423 13.146973 55.530212l0 199.96994l93.25183 0l0 -223.24362c0 -40.626877 -10.293335 -71.69249 -30.880127 -93.19684c-20.58667 -21.572372 -50.753418 -32.35858 -90.5 -32.35858z" fill-rule="evenodd"></path><path fill="#219653" d="m2054.972 345.90454l0 28.173431c0 20.61966 -6.4885254 37.15622 -19.465698 49.60968c-12.909058 12.453461 -30.166626 18.680206 -51.77246 18.680206c-30.166748 0 -45.250122 -13.167999 -45.250122 -39.50403c0 -18.373962 6.6245117 -32.05237 19.873413 -41.035187c13.248779 -8.982819 33.427856 -13.882538 60.53711 -14.699158l36.07776 -1.2249451zm-296.2655 -321.2381c-42.192505 0 -72.868774 8.982826 -92.02869 26.948479c-19.160034 17.965649 -28.73999 46.445293 -28.73999 85.438934l0 25.111069l-51.36487 25.111084l0 45.01622l51.36487 0l0 272.24084l93.25183 0l0 -272.24084l80.71631 0l0 -70.127304l-80.71631 0l0 -21.43628c0 -12.249313 2.9554443 -22.286934 8.866577 -30.112885c5.9110107 -7.894005 15.490967 -11.841003 28.739868 -11.841003c15.898682 0 33.22412 2.9602509 51.97644 8.880753l23.8479 -68.59613c-25.070923 -9.595291 -53.708862 -14.392937 -85.91394 -14.392937zm246.7351 130.45512c-47.899902 0 -91.51929 10.309845 -130.85828 30.929504l30.880127 63.08394c36.893066 -16.53656 68.99609 -24.80484 96.309204 -24.80484c35.46631 0 53.19934 17.35318 53.19934 52.05954l0 15.005432l-59.31421 1.8373718c-51.161133 1.8374023 -89.4469 11.398682 -114.857666 28.683807c-25.342651 17.217072 -38.01416 43.995422 -38.01416 80.33505c0 34.70636 9.410278 61.450684 28.230347 80.23297c18.888306 18.782257 44.74048 28.1734 77.55701 28.1734c26.701538 0 48.34143 -3.810913 64.919556 -11.432678c16.645996 -7.6898804 32.816406 -21.43631 48.511353 -41.23935l2.4458008 0l18.038818 46.547363l65.123535 0l0 -228.14337c0 -40.83101 -12.229736 -71.25012 -36.68921 -91.25734c-24.459473 -20.007202 -59.620117 -30.010803 -105.48157 -30.010803z" fill-rule="evenodd"></path><path fill="#219653" d="m2434.3997 155.73404c-21.198242 0 -40.83374 5.8864746 -58.906494 17.659424c-18.004883 11.704895 -32.306885 27.152634 -42.906006 46.343216l-4.5861816 0l-13.758545 -57.571762l-70.62671 0l0 342.36816l93.25171 0l0 -174.2464c0 -27.560944 8.2890625 -48.997223 24.867188 -64.30887c16.645996 -15.31163 39.848633 -22.967453 69.607666 -22.967453c10.8029785 0 19.975098 1.0207672 27.516846 3.0623322l7.0322266 -87.582565c-8.357178 -1.8373871 -18.854248 -2.7560883 -31.4917 -2.7560883z" fill-rule="evenodd"></path><path fill="#219653" d="m2716.2952 155.73404c-22.421143 0 -42.294434 4.4573975 -59.619873 13.372162c-17.32544 8.846725 -30.574463 21.13005 -39.746826 36.850006l-5.19751 0l-12.5354 -43.79129l-71.23828 0l0 342.36816l93.25171 0l0 -161.0784c0 -40.218567 5.401367 -69.10651 16.204346 -86.66385c10.8029785 -17.557343 28.128418 -26.336014 51.976562 -26.336014c17.73291 0 30.710205 6.1927185 38.931152 18.57811c8.289307 12.317383 12.433594 30.827423 12.433594 55.530212l0 199.96994l93.25195 0l0 -171.79654c0 -35.52298 5.63916 -61.450684 16.917725 -77.78311c11.346436 -16.332413 28.434082 -24.498611 51.26294 -24.498611c17.733154 0 30.710205 6.1927185 38.931396 18.57811c8.2890625 12.317383 12.433594 30.827423 12.433594 55.530212l0 199.96994l93.55737 0l0 -223.24362c0 -43.89337 -9.953613 -75.77559 -29.86084 -95.6467c-19.839355 -19.939133 -49.122803 -29.908722 -87.85034 -29.908722c-22.421143 0 -42.566162 4.389328 -60.435303 13.167999c-17.801025 8.778671 -31.287842 21.130066 -40.45996 37.05417l-8.255127 0c-18.14087 -33.481445 -52.791748 -50.222168 -103.95288 -50.222168z" fill-rule="evenodd"></path><path stroke="#219653" stroke-width="24.0" stroke-linejoin="round" stroke-linecap="butt" d="m202.16617 231.06728c25.070969 0 43.109833 8.472443 54.116608 25.417313c11.006775 16.944885 16.510132 42.362213 16.510132 76.25195c0 34.093903 -5.469391 59.783417 -16.408234 77.06857c-10.87088 17.217072 -28.739883 25.825623 -53.607025 25.825623c-25.070969 0 -43.177765 -8.676605 -54.320435 -26.029785c-11.074707 -17.35318 -16.61206 -42.97467 -16.61206 -76.86441c0 -34.093903 5.5033875 -59.545227 16.510147 -76.354034c11.006775 -16.8768 28.943726 -25.315231 53.810867 -25.315231zm1.2229767 -75.33324c-52.791718 0 -93.76135 15.515793 -122.908905 46.547363c-29.147549 31.031586 -43.72132 74.51663 -43.72132 130.45514c0 35.931305 6.7263565 67.371185 20.17907 94.31967c13.452721 26.948486 32.71456 47.6362 57.78553 62.06317c25.070961 14.358887 54.014687 21.53836 86.831154 21.53836c52.384064 0 93.251785 -15.71994 122.603165 -47.15985c29.35138 -31.43988 44.02707 -75.02701 44.02707 -130.76135c0 -35.931305 -6.726349 -67.269104 -20.179077 -94.01344c-13.452728 -26.744324 -32.71457 -47.261917 -57.785522 -61.552765c-25.070984 -14.290863 -54.014694 -21.436295 -86.83116 -21.436295z" fill-rule="evenodd"></path><path stroke="#219653" stroke-width="24.0" stroke-linejoin="round" stroke-linecap="butt" d="m605.4419 230.45482c22.01355 0 38.150024 8.438416 48.409363 25.315231c10.327393 16.808777 15.491028 42.05597 15.491028 75.74155c0 69.004456 -20.892456 103.50668 -62.67743 103.50668c-23.644165 0 -40.93567 -7.9620667 -51.87451 -23.88617c-10.87085 -15.924103 -16.306274 -42.2601 -16.306274 -79.008026l0 -10.105682c0.4076538 -32.664825 5.9110107 -56.074615 16.510132 -70.22937c10.599121 -14.222809 27.414978 -21.334213 50.447693 -21.334213zm29.96283 -74.72078c-42.804077 0 -75.11096 16.94487 -96.920654 50.834625l-4.2804565 0l-13.146973 -44.403748l-75.82437 0l0 493.03467l93.2518 0l0 -138.72339c0 -4.491455 -1.6306763 -21.028015 -4.8919067 -49.60974l4.8919067 0c22.828857 29.194183 54.320435 43.79129 94.47473 43.79129c26.7016 0 49.93811 -7.0433655 69.70953 -21.130066c19.771423 -14.0867 34.99066 -34.60428 45.657715 -61.552765c10.734985 -26.948486 16.102478 -58.69461 16.102478 -95.23837c0 -55.53018 -11.414429 -98.91316 -34.243286 -130.1489c-22.828857 -31.235748 -54.422363 -46.853607 -94.78052 -46.853607z" fill-rule="evenodd"></path><path stroke="#219653" stroke-width="24.0" stroke-linejoin="round" stroke-linecap="butt" d="m983.03516 222.18654c19.771423 0 35.466248 6.2947845 47.084473 18.884354c11.618286 12.521515 17.631226 30.317017 18.03894 53.386566l-130.85828 0c1.6306152 -23.06955 8.0512085 -40.86505 19.26184 -53.386566c11.210571 -12.589569 26.7016 -18.884354 46.473022 -18.884354zm-0.61151123 -66.4525c-50.54956 0 -90.1604 15.685928 -118.83234 47.057755c-28.603943 31.303802 -42.906006 75.63948 -42.906006 133.00706c0 55.734375 15.491028 98.8111 46.473022 129.23022c30.982056 30.419098 73.98993 45.628662 129.0238 45.628662c26.7016 0 49.32666 -2.0075073 67.875 -6.022583c18.548462 -3.946991 35.97583 -10.003601 52.282227 -18.1698l0 -72.270905c-19.97522 9.391113 -39.135254 16.230316 -57.47986 20.517578c-18.344604 4.287262 -37.81024 6.4308777 -58.396973 6.4308777c-26.497803 0 -47.084534 -7.45166 -61.760193 -22.35498c-14.67572 -14.90332 -22.523132 -35.62506 -23.542236 -62.165253l220.4411 0l0 -45.32242c0 -48.58893 -13.452759 -86.663864 -40.358154 -114.22481c-26.905396 -27.560944 -64.51196 -41.341415 -112.8194 -41.341415z" fill-rule="evenodd"></path><path stroke="#219653" stroke-width="24.0" stroke-linejoin="round" stroke-linecap="butt" d="m1405.5728 155.73404c-23.236572 0 -43.993164 4.253235 -62.269775 12.759689c-18.208862 8.438431 -32.510742 20.925903 -42.906006 37.46248l-5.197632 0l-12.535522 -43.79129l-71.23828 0l0 342.36816l93.25183 0l0 -161.0784c0 -40.4227 5.809082 -69.344696 17.427368 -86.76593c11.618286 -17.489273 30.472412 -26.233932 56.5625 -26.233932c19.159912 0 33.122192 6.1927185 41.88684 18.57811c8.764648 12.317383 13.146973 30.827423 13.146973 55.530212l0 199.96994l93.25183 0l0 -223.24362c0 -40.626877 -10.293335 -71.69249 -30.880127 -93.19684c-20.58667 -21.572372 -50.753418 -32.35858 -90.5 -32.35858z" fill-rule="evenodd"></path><path stroke="#219653" stroke-width="24.0" stroke-linejoin="round" stroke-linecap="butt" d="m2054.972 345.90454l0 28.173431c0 20.61966 -6.4885254 37.15622 -19.465698 49.60968c-12.909058 12.453461 -30.166626 18.680206 -51.77246 18.680206c-30.166748 0 -45.250122 -13.167999 -45.250122 -39.50403c0 -18.373962 6.6245117 -32.05237 19.873413 -41.035187c13.248779 -8.982819 33.427856 -13.882538 60.53711 -14.699158l36.07776 -1.2249451zm-296.2655 -321.2381c-42.192505 0 -72.868774 8.982826 -92.02869 26.948479c-19.160034 17.965649 -28.73999 46.445293 -28.73999 85.438934l0 25.111069l-51.36487 25.111084l0 45.01622l51.36487 0l0 272.24084l93.25183 0l0 -272.24084l80.71631 0l0 -70.127304l-80.71631 0l0 -21.43628c0 -12.249313 2.9554443 -22.286934 8.866577 -30.112885c5.9110107 -7.894005 15.490967 -11.841003 28.739868 -11.841003c15.898682 0 33.22412 2.9602509 51.97644 8.880753l23.8479 -68.59613c-25.070923 -9.595291 -53.708862 -14.392937 -85.91394 -14.392937zm246.7351 130.45512c-47.899902 0 -91.51929 10.309845 -130.85828 30.929504l30.880127 63.08394c36.893066 -16.53656 68.99609 -24.80484 96.309204 -24.80484c35.46631 0 53.19934 17.35318 53.19934 52.05954l0 15.005432l-59.31421 1.8373718c-51.161133 1.8374023 -89.4469 11.398682 -114.857666 28.683807c-25.342651 17.217072 -38.01416 43.995422 -38.01416 80.33505c0 34.70636 9.410278 61.450684 28.230347 80.23297c18.888306 18.782257 44.74048 28.1734 77.55701 28.1734c26.701538 0 48.34143 -3.810913 64.919556 -11.432678c16.645996 -7.6898804 32.816406 -21.43631 48.511353 -41.23935l2.4458008 0l18.038818 46.547363l65.123535 0l0 -228.14337c0 -40.83101 -12.229736 -71.25012 -36.68921 -91.25734c-24.459473 -20.007202 -59.620117 -30.010803 -105.48157 -30.010803z" fill-rule="evenodd"></path><path stroke="#219653" stroke-width="24.0" stroke-linejoin="round" stroke-linecap="butt" d="m2434.3997 155.73404c-21.198242 0 -40.83374 5.8864746 -58.906494 17.659424c-18.004883 11.704895 -32.306885 27.152634 -42.906006 46.343216l-4.5861816 0l-13.758545 -57.571762l-70.62671 0l0 342.36816l93.25171 0l0 -174.2464c0 -27.560944 8.2890625 -48.997223 24.867188 -64.30887c16.645996 -15.31163 39.848633 -22.967453 69.607666 -22.967453c10.8029785 0 19.975098 1.0207672 27.516846 3.0623322l7.0322266 -87.582565c-8.357178 -1.8373871 -18.854248 -2.7560883 -31.4917 -2.7560883z" fill-rule="evenodd"></path><path stroke="#219653" stroke-width="24.0" stroke-linejoin="round" stroke-linecap="butt" d="m2716.2952 155.73404c-22.421143 0 -42.294434 4.4573975 -59.619873 13.372162c-17.32544 8.846725 -30.574463 21.13005 -39.746826 36.850006l-5.19751 0l-12.5354 -43.79129l-71.23828 0l0 342.36816l93.25171 0l0 -161.0784c0 -40.218567 5.401367 -69.10651 16.204346 -86.66385c10.8029785 -17.557343 28.128418 -26.336014 51.976562 -26.336014c17.73291 0 30.710205 6.1927185 38.931152 18.57811c8.289307 12.317383 12.433594 30.827423 12.433594 55.530212l0 199.96994l93.25195 0l0 -171.79654c0 -35.52298 5.63916 -61.450684 16.917725 -77.78311c11.346436 -16.332413 28.434082 -24.498611 51.26294 -24.498611c17.733154 0 30.710205 6.1927185 38.931396 18.57811c8.2890625 12.317383 12.433594 30.827423 12.433594 55.530212l0 199.96994l93.55737 0l0 -223.24362c0 -43.89337 -9.953613 -75.77559 -29.86084 -95.6467c-19.839355 -19.939133 -49.122803 -29.908722 -87.85034 -29.908722c-22.421143 0 -42.566162 4.389328 -60.435303 13.167999c-17.801025 8.778671 -31.287842 21.130066 -40.45996 37.05417l-8.255127 0c-18.14087 -33.481445 -52.791748 -50.222168 -103.95288 -50.222168z" fill-rule="evenodd"></path></g></svg>

