<?xml version="1.0" encoding="utf-8"?>
<!-- Generator: Adobe Illustrator 20.0.0, SVG Export Plug-In . SVG Version: 6.00 Build 0)  -->
<svg version="1.1" id="Layer_1" xmlns="http://www.w3.org/2000/svg" xmlns:xlink="http://www.w3.org/1999/xlink" x="0px" y="0px"
	 viewBox="0 0 500 500" style="enable-background:new 0 0 500 500;" xml:space="preserve">
<style type="text/css">
	.st0{fill:none;stroke:#699273;stroke-width:3;stroke-miterlimit:10;}
	.st1{fill:#689946;}
	.st2{fill:none;stroke:#689946;stroke-width:3;stroke-miterlimit:10;}
	.st3{fill:#00FFFF;}
	.st4{fill:#54665F;}
	.st5{fill:#434D42;}
	.st6{fill:#54665F;stroke:#434D42;stroke-width:2;stroke-linecap:round;stroke-linejoin:round;stroke-miterlimit:10;}
	.st7{fill:#748C8B;}
	.st8{fill:#EFC11E;}
	.st9{fill:none;stroke:#434D42;stroke-linecap:round;stroke-linejoin:round;stroke-miterlimit:10;}
	.st10{fill:none;stroke:#FFFFFF;stroke-linecap:round;stroke-linejoin:round;stroke-miterlimit:10;}
	.st11{fill:#748C8B;stroke:#434D42;stroke-linecap:round;stroke-linejoin:round;stroke-miterlimit:10;}
	.st12{fill:#FFFFFF;}
	.st13{fill:#EFFE99;stroke:#3E4A14;stroke-width:3;stroke-miterlimit:10;}
	.st14{clip-path:url(#SVGID_2_);}
	.st15{fill:none;stroke:#3E4A14;stroke-width:3;stroke-miterlimit:10;}
	.st16{fill:none;stroke:#FFFFFF;stroke-linecap:round;stroke-miterlimit:10;}
	.st17{fill:#EFFE99;}
	.st18{fill:#3E4A14;}
	.st19{fill:#F1C06D;}
	.st20{clip-path:url(#SVGID_4_);}
	.st21{clip-path:url(#SVGID_6_);}
	.st22{fill:none;stroke:#E4D9C8;stroke-linecap:round;stroke-linejoin:round;}
	.st23{clip-path:url(#SVGID_8_);}
	.st24{clip-path:url(#SVGID_10_);}
	.st25{clip-path:url(#SVGID_12_);}
	.st26{clip-path:url(#SVGID_14_);}
	.st27{clip-path:url(#SVGID_16_);}
	.st28{fill:#DED1C8;}
	.st29{clip-path:url(#SVGID_18_);}
	.st30{clip-path:url(#SVGID_20_);}
	.st31{clip-path:url(#SVGID_22_);}
	.st32{fill:none;stroke:#E4D9C8;stroke-width:3;stroke-miterlimit:10;}
	.st33{fill:#699273;}
	.st34{clip-path:url(#SVGID_24_);}
	.st35{fill:#E4D9C8;}
	.st36{clip-path:url(#SVGID_26_);fill:#E4D9C8;}
	.st37{clip-path:url(#SVGID_28_);fill:#E4D9C8;}
	.st38{fill:#C6A06A;}
	.st39{fill:none;stroke:#C8CF80;stroke-width:3;stroke-miterlimit:10;}
	.st40{fill:#CEE5D9;}
	.st41{fill:none;stroke:#86C1A7;stroke-linecap:round;stroke-miterlimit:10;}
	.st42{fill:#86C1A7;}
	.st43{fill:#C8CF80;}
</style>
<g>
	<g>
		<path class="st33" d="M388.6,142.1c12.1-6.8,38.5-25,49.2-58.4l1.4-4.3c1-3.2-0.6-6.6-3.8-7.8l-4.3-1.6
			c-0.3-0.1-24.9-9.7-41.2-34.1c-1.8-2.7-5.5-3.6-8.3-2l-8.3,4.7c-3.1,1.8-4.1,5.9-2.2,8.9c11.4,17.4,26.1,28.7,37,35.4
			c2.9,1.8,3.9,5.5,2.2,8.5c-9.7,16.6-24.2,26.6-31.7,31L388.6,142.1z"/>
	</g>
	<path class="st19" d="M109.2,407.2c65.5,63.3,165.9,68.2,243.7-7.2C424,331,470.6,231,413.2,153.3c-6.4-8.7-16.4-10.2-25.9-18.9
		c-8.5-9.8-9.7-19.8-18.1-26.5c-75.9-59.8-177.3-15.6-248,53c-77.8,75.4-76.5,175.4-15.3,242.9L109.2,407.2z"/>
	<g>
		<defs>
			<path id="SVGID_23_" d="M109.2,407.2c65.5,63.3,165.9,68.2,243.7-7.2C424,331,470.6,231,413.2,153.3
				c-6.4-8.7-16.4-10.2-25.9-18.9c-8.5-9.8-9.7-19.8-18.1-26.5c-75.9-59.8-177.3-15.6-248,53c-77.8,75.4-76.5,175.4-15.3,242.9
				L109.2,407.2z"/>
		</defs>
		<clipPath id="SVGID_2_">
			<use xlink:href="#SVGID_23_"  style="overflow:visible;"/>
		</clipPath>
		<g class="st14">
			<path class="st35" d="M380.4,232.8c-1.4,0-2.7-0.7-3.3-2c-0.3-0.5-6.4-13-1.4-23.4c2.8-5.8,8.3-9.7,16.4-11.4
				c9-2,14.4-4.9,16-8.8c1.6-3.8,0-9.3-5-17.3c-5.4-8.7-6.6-17.5-3.5-24.8c2.1-5.1,7.4-11.7,20.2-14.5c2-0.4,3.9,0.8,4.4,2.8
				c0.4,2-0.8,3.9-2.8,4.4c-7.7,1.7-12.9,5.2-14.9,10.1c-2.1,5-1,11.6,3,18.1c4.3,7,8.9,16.1,5.5,24.1c-2.7,6.3-9.6,10.6-21.2,13.1
				c-5.8,1.3-9.6,3.7-11.3,7.4c-3.4,7.1,1.3,16.8,1.3,16.9c0.9,1.8,0.2,4-1.7,4.9C381.5,232.7,381,232.8,380.4,232.8z"/>
			<path class="st35" d="M295.3,139.8c-1.9,0-3.5-1.4-3.7-3.4c-0.2-2,1.3-3.8,3.3-4c0.1,0,10.9-1.1,15.1-7.7c2.2-3.4,2.3-8,0.4-13.5
				c-3.9-11.3-3.9-19.4,0.1-25c5.1-7.1,15-7.8,23.4-7.8c0.1,0,0.1,0,0.2,0c7.5,0,13.7-2.5,16.8-6.9c3.1-4.4,3.4-10.6,0.8-18
				c-0.7-1.9,0.4-4,2.3-4.7c1.9-0.6,4,0.4,4.7,2.3c4.3,12.4,1.4,20.3-1.8,24.7c-4.6,6.4-12.7,10-22.8,10c-0.3,0-0.6,0-0.8,0
				c-9.1,0-14.5,1.5-16.8,4.8c-2.4,3.4-2.2,9.6,0.9,18.3c2.7,7.8,2.3,14.6-1.2,20c-6.3,9.6-20.1,10.9-20.7,11
				C295.5,139.8,295.4,139.8,295.3,139.8z"/>
			<path class="st35" d="M275.1,185.1c-1.1,0-2.3-0.5-3-1.5c-1.2-1.6-0.8-3.9,0.8-5.2c6.3-4.6,9.6-9.9,9.6-15.3
				c-0.1-5.4-3.8-11-10.1-15.3c-6.8-4.6-14.6-11.1-14.8-19.8c-0.1-6.8,4.5-13.6,14.1-20.6c4.8-3.5,7.2-7.3,7.4-11.4
				c0.2-7.8-8-14.8-8.1-14.9c-1.6-1.3-1.8-3.6-0.5-5.2c1.3-1.6,3.6-1.8,5.2-0.5c0.4,0.4,11.1,9.3,10.7,20.8
				c-0.2,6.4-3.7,12.2-10.4,17.1c-7.4,5.4-11.2,10.3-11.1,14.5c0.1,4.1,3.7,8.5,11.6,13.8c8.4,5.8,13.2,13.3,13.3,21.3
				c0.1,5.5-2,13.6-12.6,21.4C276.6,184.8,275.9,185.1,275.1,185.1z"/>
			<path class="st35" d="M365.1,152.8c-3,0-6.3-0.4-10.2-1.5c-2-0.6-3.1-2.6-2.5-4.6c0.6-2,2.6-3.1,4.6-2.5c7.6,2.2,13.8,1.5,18-1.9
				c4.2-3.4,6.4-9.7,5.9-17.4c-0.5-8.2-0.3-18.3,6.5-23.8c5.3-4.3,13.5-4.8,24.9-1.5c5.7,1.6,10.2,1.2,13.5-1.2
				c6.4-4.6,6.8-15.4,6.8-15.5c0.1-2,1.9-3.7,3.8-3.6c2,0.1,3.6,1.8,3.6,3.8c0,0.6-0.5,14.4-9.8,21.2c-5.2,3.8-11.9,4.6-19.9,2.3
				c-8.9-2.5-15-2.5-18.3,0.2c-3.2,2.6-4.4,8.2-3.8,17.6c0.6,10.2-2.4,18.6-8.6,23.6C376.6,150.4,371.9,152.8,365.1,152.8z"/>
			<path class="st35" d="M319.8,199.9c-1,0-2.1-0.4-2.8-1.3c-8.6-9.9-8.8-18.3-7.5-23.6c1.9-7.8,8.2-14.1,17.7-17.8
				c8.8-3.5,13.4-6.9,14.3-10.9c1-4.1-1.6-9.7-7.6-16.6c-5.4-6.3-7.6-12.7-6.3-19c2.2-11.3,14.6-17.6,15.1-17.9
				c1.8-0.9,4-0.2,4.9,1.6c0.9,1.8,0.2,4-1.6,4.9c-0.1,0.1-9.7,5-11.2,12.8c-0.8,4,0.8,8.3,4.6,12.7c7.8,9,10.8,16.6,9.2,23.2
				c-2.1,8.4-11.1,13-18.8,16c-7.1,2.8-11.9,7.4-13.2,12.7c-1.3,5.2,0.8,11.1,5.9,17.1c1.3,1.5,1.2,3.9-0.4,5.2
				C321.5,199.6,320.7,199.9,319.8,199.9z"/>
			<path class="st35" d="M232.8,213c-0.6,0-1.3-0.2-1.9-0.5c-0.5-0.3-12.3-7.6-13.7-19c-0.8-6.4,1.8-12.6,7.7-18.5
				c6.6-6.5,9.5-11.9,8.8-16c-0.7-4-4.9-7.8-13.5-12c-9.2-4.5-15-11.3-16.3-19.1c-0.9-5.4,0-13.8,9.3-23c1.4-1.4,3.8-1.4,5.2,0
				c1.4,1.4,1.4,3.8,0,5.2c-5.6,5.5-8.1,11.3-7.2,16.6c0.9,5.4,5.3,10.4,12.2,13.7c7.4,3.6,16.1,8.8,17.5,17.4
				c1.1,6.7-2.5,14.1-10.9,22.4c-4.2,4.2-6.1,8.3-5.6,12.3c0.9,7.8,10.1,13.5,10.2,13.6c1.7,1.1,2.3,3.3,1.2,5.1
				C235.3,212.3,234,213,232.8,213z"/>
			<path class="st35" d="M123.5,205c-2,0-3.6-1.5-3.7-3.5c-0.1-2,1.5-3.7,3.5-3.8c7.9-0.3,13.5-2.9,16.4-7.4
				c2.9-4.6,3-11.3,0.1-18.4c-3.1-7.6-6-17.4-1.3-24.7c3.7-5.7,11.3-8.8,23.2-9.3c5.9-0.3,10.1-2.1,12.4-5.4
				c4.6-6.4,1.6-16.8,1.6-16.9c-0.6-1.9,0.5-4,2.5-4.6c1.9-0.6,4,0.5,4.6,2.5c0.2,0.6,4,13.9-2.6,23.2c-3.7,5.3-9.8,8.1-18.1,8.5
				c-9.2,0.4-15,2.4-17.3,5.9c-2.2,3.4-1.6,9.1,1.9,17.9c3.8,9.5,3.5,18.4-0.8,25.1c-3,4.6-9.3,10.2-22.3,10.8
				C123.6,205,123.6,205,123.5,205z"/>
		</g>
		<g class="st14">
			<path class="st35" d="M230.1,302.9c-1.7,0-3.3-1.2-3.6-3c-1.4-7.7-4.8-13-9.6-15.3c-4.9-2.3-11.6-1.4-18.2,2.4
				c-7.1,4.1-16.3,8.4-24.2,4.7c-6.2-2.9-10.3-9.9-12.4-21.7c-1.1-5.8-3.5-9.7-7.1-11.6c-6.9-3.6-16.8,0.8-16.9,0.8
				c-1.9,0.8-4,0-4.9-1.8c-0.8-1.8,0-4,1.8-4.9c0.5-0.2,13.2-5.9,23.4-0.6c5.7,3,9.4,8.6,10.9,16.8c1.7,9.1,4.5,14.6,8.3,16.3
				c3.7,1.7,9.3,0.3,17.5-4.4c8.9-5.1,17.7-6.1,25-2.7c5,2.3,11.4,7.7,13.8,20.6c0.4,2-0.9,3.9-2.9,4.3
				C230.5,302.9,230.3,302.9,230.1,302.9z"/>
			<path class="st35" d="M302.8,347.3c-0.5,0-1-0.1-1.5-0.3c-0.5-0.2-13.2-5.9-16.1-17c-1.6-6.3,0.2-12.7,5.2-19.3
				c5.6-7.3,7.9-13,6.6-17c-1.2-3.9-5.9-7.1-14.9-10.1c-9.7-3.2-16.3-9.2-18.6-16.8c-1.6-5.3-1.8-13.7,6.2-24
				c1.3-1.6,3.6-1.9,5.2-0.7c1.6,1.2,1.9,3.6,0.7,5.2c-4.8,6.2-6.5,12.2-4.9,17.4c1.6,5.2,6.7,9.6,13.9,11.9
				c7.8,2.6,17.1,6.6,19.7,14.9c2,6.5-0.6,14.3-7.9,23.7c-3.6,4.7-4.9,9-3.9,12.9c1.9,7.6,11.8,12.1,11.9,12.1
				c1.9,0.8,2.7,3,1.9,4.9C305.5,346.5,304.2,347.3,302.8,347.3z"/>
			<path class="st35" d="M316.5,319.9c-1.7,0-3.2-1.2-3.6-2.9c-0.4-2,0.8-3.9,2.8-4.4c0.1,0,10.6-2.4,14-9.5
				c1.7-3.7,1.3-8.2-1.3-13.5c-5.3-10.7-6.3-18.8-3-24.8c4.1-7.7,14.1-9.8,22.2-10.7c7.6-0.9,13.4-4.2,16-9c2.6-4.7,2.1-10.9-1.4-18
				c-0.9-1.8-0.2-4,1.7-4.9c1.8-0.9,4-0.2,4.9,1.7c5.8,11.7,3.9,19.9,1.3,24.8c-3.8,7-11.5,11.6-21.6,12.8
				c-9.4,1.1-14.7,3.3-16.6,6.9c-2,3.7-0.9,9.8,3.2,18c3.7,7.4,4.1,14.2,1.3,20c-5,10.3-18.5,13.4-19.1,13.5
				C317,319.8,316.7,319.9,316.5,319.9z"/>
			<path class="st35" d="M407,255.4c-1.7,0-3.2-1.2-3.6-2.9c-0.4-2,0.8-3.9,2.8-4.4c0.1,0,10.6-2.4,14-9.5c1.8-3.7,1.3-8.2-1.3-13.5
				c-5.3-10.7-6.3-18.8-3-24.8c4.1-7.7,14.1-9.8,22.2-10.7c7.6-0.9,13.4-4.2,16-9c2.6-4.7,2.1-10.9-1.4-18c-0.9-1.8-0.2-4,1.7-4.9
				c1.8-0.9,4-0.2,4.9,1.7c5.8,11.7,3.9,19.9,1.3,24.8c-3.8,7-11.5,11.6-21.6,12.8c-9.4,1.1-14.7,3.3-16.6,6.9
				c-2,3.7-0.9,9.8,3.2,18c3.7,7.4,4.1,14.2,1.3,20c-5,10.3-18.5,13.4-19.1,13.5C407.5,255.4,407.3,255.4,407,255.4z"/>
			<path class="st35" d="M227.4,380.6c-1.3,0-2.6-0.7-3.3-1.9c-1-1.8-0.3-4,1.5-5c0.1-0.1,9.6-5.2,10.9-13c0.7-4-1-8.2-4.9-12.6
				c-8-8.8-11.2-16.3-9.7-23c1.9-8.5,10.8-13.2,18.4-16.4c7-3,11.8-7.7,12.9-13c1.2-5.2-1-11.1-6.3-16.9c-1.4-1.5-1.3-3.8,0.3-5.2
				c1.5-1.4,3.8-1.3,5.2,0.3c8.8,9.7,9.2,18.1,8,23.5c-1.7,7.8-7.9,14.3-17.3,18.2c-8.7,3.7-13.2,7.2-14.1,11.2
				c-0.9,4.1,1.8,9.6,8,16.5c5.6,6.2,7.8,12.5,6.7,18.8c-2,11.3-14.2,17.9-14.7,18.2C228.6,380.4,228,380.6,227.4,380.6z"/>
			<path class="st35" d="M63.6,395.8c-1.9,0-3.5-1.5-3.7-3.4c-0.1-2,1.4-3.8,3.4-3.9c7.8-0.5,13.4-3.2,16.2-7.8
				c2.8-4.6,2.7-11.3-0.3-18.4c-3.3-7.6-6.4-17.2-1.9-24.6c3.6-5.8,11.1-9.1,22.9-9.9c5.9-0.4,10-2.3,12.3-5.7
				c4.4-6.5,1.2-16.8,1.2-16.9c-0.6-1.9,0.4-4,2.4-4.6c1.9-0.6,4,0.4,4.6,2.4c0.2,0.6,4.4,13.8-2,23.3c-3.6,5.3-9.6,8.3-17.9,8.9
				c-9.2,0.6-15,2.8-17.1,6.4c-2.1,3.5-1.4,9.2,2.4,17.9c4,9.4,4,18.3-0.2,25.1c-2.9,4.7-9,10.4-22,11.3
				C63.8,395.8,63.7,395.8,63.6,395.8z"/>
			<path class="st35" d="M98.9,425.7c-1.3,0-2.5-0.7-3.2-1.9c-0.3-0.5-6.9-12.7-2.4-23.3c2.5-5.9,7.9-10,15.9-12.2
				c8.9-2.4,14.2-5.6,15.6-9.5c1.4-3.8-0.4-9.3-5.7-17.1c-5.8-8.4-7.4-17.2-4.6-24.7c1.9-5.1,6.8-12,19.5-15.3c2-0.5,4,0.6,4.5,2.6
				c0.5,2-0.6,4-2.6,4.5c-7.6,2-12.6,5.7-14.5,10.8c-1.9,5.1-0.5,11.7,3.8,18c4.6,6.8,9.6,15.6,6.6,23.8c-2.4,6.4-9.1,11-20.6,14.1
				c-5.7,1.5-9.4,4.2-11,7.9c-3.1,7.2,2,16.7,2.1,16.8c1,1.8,0.3,4-1.4,5C100.1,425.6,99.5,425.7,98.9,425.7z"/>
			<path class="st35" d="M182.4,269.2c-0.4,0-0.8-0.1-1.2-0.2c-1.9-0.7-2.9-2.7-2.3-4.7c0.2-0.6,4.8-13.7,15.6-17.4
				c6.1-2.1,12.7-0.9,19.7,3.6c7.7,5,13.6,6.8,17.5,5.2c3.8-1.5,6.6-6.5,8.8-15.7c2.4-9.9,7.8-17,15.2-20c5.1-2,13.5-2.9,24.4,4.2
				c1.7,1.1,2.2,3.4,1.1,5.1c-1.1,1.7-3.4,2.2-5.1,1.1c-6.6-4.3-12.7-5.5-17.7-3.5c-5.1,2-9,7.4-10.8,14.9
				c-1.9,8-5.2,17.6-13.3,20.8c-6.3,2.5-14.3,0.6-24.3-5.9c-5-3.2-9.4-4.2-13.2-2.9c-7.4,2.5-11,12.7-11.1,12.8
				C185.4,268.2,183.9,269.2,182.4,269.2z"/>
			<path class="st35" d="M129.9,447.2c-1.4,0-2.7-0.8-3.3-2.1c-0.2-0.5-6-13.1-0.8-23.4c2.9-5.7,8.5-9.5,16.7-11
				c9-1.7,14.5-4.6,16.2-8.4c1.7-3.7,0.3-9.3-4.5-17.4c-5.2-8.8-6.2-17.7-2.9-25c2.3-5,7.7-11.5,20.5-13.9c2-0.4,3.9,0.9,4.3,2.9
				c0.4,2-0.9,3.9-2.9,4.3c-7.7,1.5-13,4.9-15.2,9.7c-2.3,5-1.3,11.6,2.5,18.2c4.2,7.1,8.5,16.3,4.9,24.2
				c-2.8,6.2-9.9,10.3-21.6,12.6c-5.8,1.1-9.7,3.5-11.5,7.1c-3.5,7,0.9,16.8,0.9,16.9c0.9,1.8,0.1,4-1.8,4.9
				C130.9,447.1,130.4,447.2,129.9,447.2z"/>
			<path class="st35" d="M205.6,409.6c-0.7,0-1.4-0.2-2.1-0.7c-0.5-0.3-11.8-8.3-12.5-19.8c-0.4-6.4,2.6-12.5,8.9-17.9
				c6.9-6.1,10.2-11.3,9.8-15.5c-0.4-4.1-4.5-8.1-12.7-12.8c-8.9-5-14.3-12.1-15.1-20.1c-0.6-5.5,0.8-13.8,10.7-22.4
				c1.5-1.3,3.9-1.2,5.2,0.3c1.3,1.5,1.2,3.9-0.3,5.2c-5.9,5.2-8.8,10.8-8.2,16.1c0.6,5.4,4.7,10.7,11.4,14.4
				c7.2,4,15.5,9.8,16.4,18.4c0.7,6.8-3.3,13.9-12.3,21.8c-4.4,3.9-6.6,7.9-6.4,12c0.4,7.9,9.2,14.1,9.3,14.2
				c1.7,1.2,2.1,3.5,0.9,5.1C207.9,409,206.8,409.6,205.6,409.6z"/>
			<path class="st35" d="M176.8,336c-3,0-14.6-0.5-21.2-8.2c-4.2-4.9-5.4-11.5-3.8-19.7c1.9-9,1.4-15.1-1.5-18.2
				c-2.8-3-8.5-3.8-17.8-2.5c-10.1,1.4-18.7-1.1-24.1-6.9c-3.7-4-7.6-11.5-5-24.3c0.4-2,2.4-3.3,4.4-2.9c2,0.4,3.3,2.4,2.9,4.4
				c-1.6,7.7-0.5,13.8,3.2,17.8c3.7,4,10.2,5.7,17.8,4.6c8.2-1.1,18.3-1.6,24.2,4.8c4.7,5,5.7,13.1,3.3,24.7
				c-1.2,5.8-0.5,10.3,2.1,13.4c5.1,6,16,5.7,16,5.7c2.2-0.2,3.7,1.5,3.8,3.5c0.1,2-1.5,3.7-3.5,3.8C177.5,336,177.2,336,176.8,336z
				"/>
			<path class="st35" d="M311.1,430.9c-0.2,0-0.3,0-0.4,0c-13-1.6-18.8-7.6-21.5-12.5c-3.8-7-3.4-15.9,1.1-25.1
				c4.2-8.5,5.2-14.1,3.3-17.7c-2-3.7-7.7-6.1-16.8-7.2c-8.2-1-14.1-4.3-17.5-9.8c-5.9-9.8-1.1-22.8-0.9-23.4
				c0.7-1.9,2.8-2.9,4.7-2.1c1.9,0.7,2.8,2.8,2.1,4.7c0,0.1-3.8,10.2,0.3,17c2.1,3.5,6.1,5.6,12,6.3c11.8,1.4,19.1,5,22.4,11
				c4.2,7.6,0.5,17.1-3.1,24.5c-3.4,6.9-3.8,13.5-1.2,18.3c2.6,4.7,8,7.7,15.9,8.7c2,0.2,3.5,2.1,3.2,4.1
				C314.5,429.5,312.9,430.9,311.1,430.9z"/>
			<path class="st35" d="M388.2,341.7c-1.4,0-2.7-0.8-3.3-2.1c-5.7-11.8-3.7-20-1-24.8c3.9-7,11.6-11.4,21.7-12.5
				c9.4-1,14.7-3.2,16.7-6.8c2-3.7,1.1-9.7-2.9-18c-3.6-7.5-4-14.2-1.1-20c5.1-10.3,18.7-13.2,19.3-13.3c2-0.4,3.9,0.9,4.3,2.9
				s-0.9,3.9-2.9,4.4c-0.1,0-10.7,2.3-14.2,9.4c-1.8,3.6-1.4,8.2,1.2,13.5c5.2,10.7,6.1,18.8,2.7,24.8c-4.2,7.6-14.2,9.6-22.3,10.5
				c-7.6,0.8-13.5,4-16.1,8.8c-2.6,4.7-2.2,10.9,1.2,18c0.9,1.8,0.1,4-1.7,4.9C389.3,341.6,388.8,341.7,388.2,341.7z"/>
			<path class="st35" d="M223.8,245.3c-0.4,0-0.7-0.1-1.1-0.2c-1.9-0.6-3-2.6-2.5-4.6c2.3-7.5,1.8-13.7-1.5-18
				c-3.3-4.3-9.6-6.6-17.2-6.2c-8.2,0.4-18.4-0.1-23.7-7c-4.2-5.4-4.5-13.6-1.1-24.9c1.7-5.6,1.4-10.2-0.9-13.5
				c-4.5-6.4-15.3-7.1-15.4-7.1c-2-0.1-3.6-1.8-3.5-3.9c0.1-2,1.8-3.6,3.8-3.5c0.6,0,14.4,0.8,21.1,10.2c3.7,5.3,4.4,12,2,19.9
				c-2.7,8.8-2.7,15-0.2,18.3c2.5,3.2,8.1,4.6,17.6,4.1c10.2-0.5,18.5,2.8,23.4,9.1c3.4,4.3,6.6,12.1,2.8,24.7
				C226.9,244.2,225.4,245.3,223.8,245.3z"/>
			<path class="st35" d="M305.4,260.9c-0.3,0-0.6,0-0.9-0.1c-0.6-0.1-14-3.5-18.7-14c-2.6-5.9-2-12.6,1.9-19.9
				c4.3-8.1,5.5-14.2,3.6-17.9c-1.8-3.7-7.1-6-16.4-7.4c-10.1-1.5-17.6-6.3-21.2-13.4c-2.5-4.9-4.1-13.2,2-24.7c1-1.8,3.2-2.5,5-1.5
				c1.8,0.9,2.5,3.2,1.5,5c-3.7,6.9-4.4,13.2-1.9,18c2.5,4.9,8.2,8.3,15.8,9.4c8.1,1.2,18,3.6,21.9,11.4c3.1,6.1,1.9,14.2-3.7,24.7
				c-2.8,5.2-3.3,9.7-1.7,13.4c3.2,7.2,13.7,9.9,13.8,9.9c2,0.5,3.2,2.5,2.7,4.5C308.6,259.7,307.1,260.9,305.4,260.9z"/>
			<path class="st35" d="M78.9,264.4c-0.1,0-0.2,0-0.2,0c-2-0.1-3.6-1.9-3.4-3.9c0.8-13.1,6.6-19.2,11.2-22.1
				c6.8-4.2,15.7-4.3,25.1-0.3c8.7,3.7,14.4,4.5,17.9,2.3c3.6-2.2,5.7-8,6.3-17.2c0.5-8.3,3.5-14.3,8.8-17.9
				c9.5-6.5,22.7-2.3,23.3-2.2c1.9,0.6,3,2.7,2.4,4.6c-0.6,1.9-2.7,3-4.6,2.4c-0.1,0-10.4-3.2-16.9,1.2c-3.3,2.3-5.2,6.4-5.6,12.3
				c-0.8,11.9-3.9,19.4-9.8,23c-7.4,4.6-17.1,1.4-24.6-1.8c-7-3-13.7-3.1-18.4-0.2c-4.6,2.8-7.2,8.5-7.7,16.3
				C82.5,262.9,80.9,264.4,78.9,264.4z"/>
			<path class="st35" d="M316.1,252.7c-0.2,0-0.5,0-0.7,0c-2,0-3.7-1.7-3.6-3.7c0-2,1.7-3.6,3.7-3.6c0.2,0,0.4,0,0.7,0
				c7.6,0,13.2-2.2,16.3-6.4c3.2-4.4,3.7-11.1,1.2-18.3c-2.6-7.8-5-17.7,0.2-24.7c4-5.5,11.6-8.1,23.7-7.9
				c5.8-0.1,10.2-1.5,12.7-4.6c5-6.1,2.6-16.7,2.6-16.8c-0.5-2,0.8-4,2.8-4.4c1.9-0.5,4,0.8,4.4,2.7c0.1,0.6,3.2,14.1-4,23.1
				c-4,5-10.4,7.4-18.6,7.4c-9.4-0.3-15.1,1.5-17.6,4.9c-2.4,3.3-2.1,9,0.9,18c3.3,9.7,2.5,18.6-2.3,25
				C335.1,247.6,328.7,252.7,316.1,252.7z"/>
			<path class="st35" d="M334.2,365.1c-1.4,0-2.8-0.8-3.4-2.2c-0.2-0.5-5.6-13.3,0-23.4c3.1-5.6,8.9-9.2,17.1-10.5
				c9.1-1.4,14.7-4.1,16.5-7.8c1.8-3.7,0.6-9.3-3.9-17.6c-4.9-9-5.6-17.9-2-25c2.4-4.9,8-11.2,21-13.2c1.9-0.3,3.9,1.1,4.2,3.1
				c0.3,2-1.1,3.9-3.1,4.2c-7.8,1.2-13.1,4.4-15.5,9.2c-2.4,4.9-1.7,11.5,1.9,18.2c3.9,7.2,7.9,16.6,4.1,24.4
				c-3,6.1-10.2,10-22,11.8c-5.8,0.9-9.8,3.2-11.8,6.7c-3.8,6.9,0.3,16.9,0.3,17c0.8,1.9-0.1,4-2,4.8
				C335.2,365,334.7,365.1,334.2,365.1z"/>
			<path class="st35" d="M372.7,451.6c-0.4,0-0.7-0.1-1.1-0.2c-1.9-0.6-3-2.7-2.4-4.6c2.4-7.5,1.9-13.7-1.4-18
				c-3.3-4.3-9.4-6.6-17.2-6.4c-8.2,0.3-18.4-0.3-23.6-7.2c-4.1-5.4-4.4-13.6-0.8-24.9c1.8-5.6,1.5-10.2-0.8-13.5
				c-4.5-6.5-15.2-7.2-15.4-7.2c-2-0.1-3.6-1.9-3.4-3.9c0.1-2,1.6-3.6,3.9-3.5c0.6,0,14.4,0.9,21,10.4c3.7,5.3,4.3,12,1.8,19.9
				c-2.8,8.8-2.9,14.9-0.3,18.3c2.5,3.3,8,4.7,17.5,4.3c10.3-0.2,18.5,2.9,23.3,9.3c3.3,4.4,6.5,12.2,2.5,24.7
				C375.7,450.6,374.2,451.6,372.7,451.6z"/>
			<path class="st35" d="M321.2,495.5c-9.1,0-14.6-3.5-17.7-6.7c-5.5-5.7-7.6-14.4-5.7-24.4c1.7-9.3,1.2-15-1.6-18
				c-2.9-3-9-3.8-18.1-2.4c-8.2,1.3-14.7-0.3-19.4-4.8c-8.4-7.9-7.2-21.7-7.1-22.3c0.2-2,2.1-3.5,4-3.3c2,0.2,3.5,2,3.3,4
				c0,0.1-0.9,10.9,4.9,16.3c2.9,2.8,7.4,3.7,13.2,2.8c11.8-1.8,19.8-0.3,24.5,4.6c6,6.2,5.1,16.3,3.6,24.4c-1.4,7.5,0,14.1,3.7,18
				c3.7,3.9,9.8,5.3,17.6,4.1c2.1-0.3,3.9,1.1,4.2,3.1c0.3,2-1.1,3.9-3.1,4.2C325.2,495.3,323.1,495.5,321.2,495.5z"/>
			<path class="st35" d="M176.1,435.7c-0.3,0-0.6,0-0.9-0.1c-2-0.5-3.1-2.5-2.6-4.5c0.2-0.6,3.8-14,14.4-18.5
				c5.9-2.5,12.6-1.8,19.9,2.2c8.1,4.5,14.1,5.8,17.9,4c3.7-1.8,6.1-7,7.7-16.3c1.7-10.1,6.6-17.5,13.7-21
				c4.9-2.4,13.2-3.9,24.7,2.4c1.8,1,2.4,3.2,1.4,5c-1,1.8-3.2,2.4-5,1.4c-6.9-3.8-13.1-4.6-17.9-2.2c-4.9,2.4-8.4,8-9.7,15.6
				c-1.4,8.1-3.9,17.9-11.7,21.7c-6.1,3-14.2,1.6-24.6-4.2c-5.2-2.8-9.7-3.5-13.4-1.9c-7.2,3.1-10.1,13.5-10.1,13.6
				C179.2,434.7,177.7,435.7,176.1,435.7z"/>
			<path class="st35" d="M91.4,311.3c-0.2,0-0.3,0-0.4,0c-2-0.2-3.5-2.1-3.2-4.1c0.9-7.8-0.7-13.8-4.7-17.4
				c-4-3.7-10.7-4.8-18.1-3.1c-8,1.8-18.1,3.1-24.5-2.7c-5.1-4.6-6.8-12.5-5.4-24.4c0.7-5.9-0.4-10.3-3.3-13.1
				c-5.6-5.6-16.3-4.3-16.4-4.3c-2,0.3-3.9-1.2-4.1-3.2c-0.3-2,1.2-3.9,3.2-4.1c0.6-0.1,14.4-1.7,22.5,6.4c4.6,4.5,6.4,11,5.4,19.3
				c-1.1,9.1-0.1,15.2,3,18c3,2.7,8.7,3.1,18,1c10-2.2,18.7-0.5,24.7,4.9c4.1,3.7,8.6,10.8,7,23.8C94.8,309.9,93.3,311.3,91.4,311.3
				z"/>
			<path class="st35" d="M380.4,232.8c-1.4,0-2.7-0.7-3.3-2c-0.3-0.5-6.4-13-1.4-23.4c2.8-5.8,8.3-9.7,16.4-11.4
				c9-2,14.4-4.9,16-8.8c1.6-3.8,0-9.3-5-17.3c-5.4-8.7-6.6-17.5-3.5-24.8c2.1-5.1,7.4-11.7,20.2-14.5c2-0.4,3.9,0.8,4.4,2.8
				c0.4,2-0.8,3.9-2.8,4.4c-7.7,1.7-12.9,5.2-14.9,10.1c-2.1,5-1,11.6,3,18.1c4.3,7,8.9,16.1,5.5,24.1c-2.7,6.3-9.6,10.6-21.2,13.1
				c-5.8,1.3-9.6,3.7-11.3,7.4c-3.4,7.1,1.3,16.8,1.3,16.9c0.9,1.8,0.2,4-1.7,4.9C381.5,232.7,381,232.8,380.4,232.8z"/>
			<path class="st35" d="M275.1,185.1c-1.1,0-2.3-0.5-3-1.5c-1.2-1.6-0.8-3.9,0.8-5.2c6.3-4.6,9.6-9.9,9.6-15.3
				c-0.1-5.4-3.8-11-10.1-15.3c-6.8-4.6-14.6-11.1-14.8-19.8c-0.1-6.8,4.5-13.6,14.1-20.6c4.8-3.5,7.2-7.3,7.4-11.4
				c0.2-7.8-8-14.8-8.1-14.9c-1.6-1.3-1.8-3.6-0.5-5.2c1.3-1.6,3.6-1.8,5.2-0.5c0.4,0.4,11.1,9.3,10.7,20.8
				c-0.2,6.4-3.7,12.2-10.4,17.1c-7.4,5.4-11.2,10.3-11.1,14.5c0.1,4.1,3.7,8.5,11.6,13.8c8.4,5.8,13.2,13.3,13.3,21.3
				c0.1,5.5-2,13.6-12.6,21.4C276.6,184.8,275.9,185.1,275.1,185.1z"/>
			<path class="st35" d="M319.8,199.9c-1,0-2.1-0.4-2.8-1.3c-8.6-9.9-8.8-18.3-7.5-23.6c1.9-7.8,8.2-14.1,17.7-17.8
				c8.8-3.5,13.4-6.9,14.3-10.9c1-4.1-1.6-9.7-7.6-16.6c-5.4-6.3-7.6-12.7-6.3-19c2.2-11.3,14.6-17.6,15.1-17.9
				c1.8-0.9,4-0.2,4.9,1.6c0.9,1.8,0.2,4-1.6,4.9c-0.1,0.1-9.7,5-11.2,12.8c-0.8,4,0.8,8.3,4.6,12.7c7.8,9,10.8,16.6,9.2,23.2
				c-2.1,8.4-11.1,13-18.8,16c-7.1,2.8-11.9,7.4-13.2,12.7c-1.3,5.2,0.8,11.1,5.9,17.1c1.3,1.5,1.2,3.9-0.4,5.2
				C321.5,199.6,320.7,199.9,319.8,199.9z"/>
			<path class="st35" d="M232.8,213c-0.6,0-1.3-0.2-1.9-0.5c-0.5-0.3-12.3-7.6-13.7-19c-0.8-6.4,1.8-12.6,7.7-18.5
				c6.6-6.5,9.5-11.9,8.8-16c-0.7-4-4.9-7.8-13.5-12c-9.2-4.5-15-11.3-16.3-19.1c-0.9-5.4,0-13.8,9.3-23c1.4-1.4,3.8-1.4,5.2,0
				c1.4,1.4,1.4,3.8,0,5.2c-5.6,5.5-8.1,11.3-7.2,16.6c0.9,5.4,5.3,10.4,12.2,13.7c7.4,3.6,16.1,8.8,17.5,17.4
				c1.1,6.7-2.5,14.1-10.9,22.4c-4.2,4.2-6.1,8.3-5.6,12.3c0.9,7.8,10.1,13.5,10.2,13.6c1.7,1.1,2.3,3.3,1.2,5.1
				C235.3,212.3,234,213,232.8,213z"/>
			<path class="st35" d="M123.5,205c-2,0-3.6-1.5-3.7-3.5c-0.1-2,1.5-3.7,3.5-3.8c7.9-0.3,13.5-2.9,16.4-7.4
				c2.9-4.6,3-11.3,0.1-18.4c-3.1-7.6-6-17.4-1.3-24.7c3.7-5.7,11.3-8.8,23.2-9.3c5.9-0.3,10.1-2.1,12.4-5.4
				c4.6-6.4,1.6-16.8,1.6-16.9c-0.6-1.9,0.5-4,2.5-4.6c1.9-0.6,4,0.5,4.6,2.5c0.2,0.6,4,13.9-2.6,23.2c-3.7,5.3-9.8,8.1-18.1,8.5
				c-9.2,0.4-15,2.4-17.3,5.9c-2.2,3.4-1.6,9.1,1.9,17.9c3.8,9.5,3.5,18.4-0.8,25.1c-3,4.6-9.3,10.2-22.3,10.8
				C123.6,205,123.6,205,123.5,205z"/>
		</g>
		<g class="st14">
			<defs>
				<rect id="SVGID_25_" x="-416.4" y="-310.9" width="466.4" height="466.4"/>
			</defs>
			<clipPath id="SVGID_4_">
				<use xlink:href="#SVGID_25_"  style="overflow:visible;"/>
			</clipPath>
			<path style="clip-path:url(#SVGID_4_);fill:#E4D9C8;" d="M44.2,191.5c-0.2,0-0.5,0-0.7,0c-2,0-3.7-1.7-3.6-3.7
				c0-2,1.4-3.7,3.7-3.6c7.8,0,13.7-2.1,16.9-6.4c3.2-4.4,3.7-11.1,1.2-18.3c-2.6-7.8-5-17.7,0.2-24.7c4-5.5,11.7-8.1,23.7-7.9
				c5.9,0.2,10.2-1.5,12.7-4.6c4.9-6.1,2.6-16.6,2.6-16.8c-0.5-2,0.8-4,2.7-4.4c2-0.5,4,0.8,4.4,2.7c0.1,0.6,3.2,14.1-4,23
				c-4,5-10.1,7.5-18.6,7.4c-9.3-0.3-15.1,1.5-17.6,4.9c-2.4,3.3-2.1,9,0.9,18c3.3,9.7,2.4,18.6-2.3,25
				C63.2,186.4,56.8,191.5,44.2,191.5z"/>
			<path style="clip-path:url(#SVGID_4_);fill:#E4D9C8;" d="M-29,153.9c-3.9,0-8.5-0.9-13.9-3.4c-1.8-0.8-2.7-3-1.8-4.9
				c0.8-1.9,3-2.7,4.9-1.8c7.1,3.3,13.4,3.6,18,0.9c4.7-2.7,7.8-8.7,8.5-16.3c0.7-8.2,2.6-18.2,10.1-22.5c5.9-3.4,14-2.7,24.9,2.3
				c5.4,2.5,9.9,2.8,13.5,0.9c7-3.6,9.1-14.2,9.1-14.3c0.4-2,2.2-3.3,4.3-2.9c2,0.4,3.3,2.3,2.9,4.3c-0.1,0.6-2.7,14.2-12.9,19.5
				c-5.7,3-12.5,2.7-20-0.7c-8.4-3.8-14.5-4.7-18.1-2.6c-3.5,2.1-5.6,7.4-6.4,16.8c-0.9,10.2-5.2,18-12.1,22
				C-20.7,152.5-24.3,153.9-29,153.9z"/>
			<path style="clip-path:url(#SVGID_4_);fill:#E4D9C8;" d="M-4.7,92.3c-0.2,0-0.3,0-0.5,0c-6.8-0.2-13.3-5.2-19.9-15.1
				c-3.2-4.9-6.9-7.6-11-7.9c-7.8-0.6-15.2,7.2-15.3,7.3c-1.4,1.5-3.7,1.6-5.2,0.2c-1.5-1.4-1.6-3.7-0.2-5.2
				c0.4-0.4,9.9-10.5,21.3-9.7c6.4,0.5,12,4.3,16.6,11.2c5.1,7.7,9.8,11.7,13.9,11.8c0.1,0,0.2,0,0.2,0c4,0,8.5-3.5,14.2-10.9
				c6.2-8.1,13.8-12.4,22-12.2c5.5,0.2,13.5,2.7,20.7,13.7c1.1,1.7,0.6,4-1.1,5.1c-1.7,1.1-4,0.6-5.1-1.1
				c-4.3-6.6-9.4-10.1-14.8-10.3c-5.3-0.1-11.2,3.2-15.8,9.3C10.4,85,3.7,92.3-4.7,92.3z"/>
			<path style="clip-path:url(#SVGID_4_);fill:#E4D9C8;" d="M126.4,34.9c-1.4,0-2.8-0.8-3.4-2.3c0-0.1-4.3-10-11.9-12.1
				c-3.9-1.1-8.3,0.2-13,3.7c-9.6,7.1-17.4,9.5-23.9,7.4c-8.3-2.7-12.1-12.1-14.5-20C57.5,4.2,53.2-0.9,48-2.6
				C42.9-4.3,36.9-2.7,30.6,2c-1.6,1.2-3.9,0.9-5.2-0.8c-1.2-1.6-0.9-3.9,0.8-5.2c10.5-7.8,19-7.4,24.2-5.7
				c7.6,2.5,13.4,9.2,16.4,19c2.8,9,5.9,13.9,9.8,15.1c4,1.3,9.8-0.8,17.2-6.3c6.7-4.9,13.2-6.6,19.4-4.8
				c11.1,3.1,16.4,15.9,16.7,16.4c0.8,1.9-0.1,4-2,4.8C127.3,34.8,126.8,34.9,126.4,34.9z"/>
			<path style="clip-path:url(#SVGID_4_);fill:#E4D9C8;" d="M-56.6,58.9c-4.2,0-9.3-1.1-15.2-4.3c-1.8-1-2.5-3.2-1.5-5
				c1-1.8,3.2-2.5,5-1.5c6.9,3.7,13.1,4.4,18,2c4.9-2.4,8.3-8.1,9.5-15.7c1.3-8.1,3.7-18,11.5-21.9c6.1-3,14.2-1.8,24.7,3.9
				c5.2,2.8,9.7,3.4,13.5,1.7c7.1-3.2,9.9-13.6,10-13.7c0.5-2,2.5-3.2,4.5-2.7c2,0.5,3.2,2.5,2.7,4.5c-0.1,0.6-3.6,14-14.1,18.6
				c-5.9,2.6-12.6,1.9-19.9-2c-8.1-4.4-14.1-5.6-17.9-3.8c-3.7,1.8-6.1,7-7.5,16.4c-1.6,10.1-6.4,17.6-13.5,21.1
				C-49.5,57.9-52.7,58.9-56.6,58.9z"/>
			<path style="clip-path:url(#SVGID_4_);fill:#E4D9C8;" d="M-35,6.2c-5.9,0-12.4-3.4-19.9-10.4c-4.3-4-8.6-5.7-12.5-5.2
				C-75.1-8.1-80.5,1.3-80.5,1.4c-1,1.8-3.2,2.4-5,1.4c-1.8-1-2.4-3.2-1.4-5c0.3-0.5,7.1-12.6,18.4-14.4c6.4-1,12.7,1.4,18.7,7
				c6.7,6.3,12.3,9.1,16.3,8.2c4-0.8,7.6-5.2,11.5-13.9c4.1-9.3,10.6-15.4,18.5-17c5.4-1.1,13.8-0.5,23.3,8.4
				c1.5,1.4,1.6,3.7,0.2,5.2c-1.4,1.5-3.7,1.6-5.2,0.2C9-23.9,3.2-26.2-2.1-25.1c-5.3,1.1-10.1,5.7-13.2,12.7
				C-18.6-4.8-23.5,4.1-32,5.9C-33,6.1-34,6.2-35,6.2z"/>
			<path style="clip-path:url(#SVGID_4_);fill:#E4D9C8;" d="M-14.7,233.8c-1.5,0-3-1-3.5-2.5c-0.2-0.6-4.4-13.8,2-23.3
				c3.6-5.3,9.6-8.3,17.9-8.9c9.2-0.6,15-2.8,17.1-6.4c2.1-3.5,1.4-9.2-2.4-17.9c-4-9.4-4-18.3,0.2-25.1c2.9-4.7,9-10.5,22.1-11.4
				c2-0.1,3.8,1.4,3.9,3.4c0.1,2-1.4,3.8-3.4,3.9c-7.8,0.5-13.5,3.3-16.3,7.8c-2.8,4.6-2.7,11.3,0.3,18.3c3.3,7.6,6.4,17.2,1.9,24.6
				c-3.5,5.8-11,9.1-22.9,9.9c-5.9,0.4-10,2.3-12.3,5.7c-4.4,6.5-1.2,16.8-1.2,16.9c0.6,1.9-0.4,4-2.4,4.6
				C-13.9,233.7-14.3,233.8-14.7,233.8z"/>
			<path style="clip-path:url(#SVGID_4_);fill:#E4D9C8;" d="M90.2,60.6c-0.6,0-1.3,0-1.8-0.1c-7.9-0.7-15.1-6-20.3-14.8
				c-4.7-8.2-8.8-12.2-12.9-12.6c-4.3-0.5-9.3,3-15.3,10c-5.4,6.3-11.7,9.4-17.8,9.1C10.5,51.6,2.4,40.4,2.1,39.9
				c-1.2-1.7-0.8-3.9,0.9-5.1c1.6-1.2,3.9-0.8,5.1,0.9c0.1,0.1,6.4,8.8,14.3,9.2c4,0.2,8-2,11.9-6.5c7.7-9.1,14.8-13.1,21.6-12.5
				c8.7,0.8,14.5,9.1,18.6,16.2c3.8,6.6,9.1,10.7,14.6,11.2c5.3,0.5,10.9-2.4,16-8.4c1.3-1.5,3.7-1.7,5.2-0.4
				c1.5,1.3,1.7,3.6,0.4,5.2C103,58.5,95.6,60.6,90.2,60.6z"/>
		</g>
		<g class="st14">
			<defs>
				<rect id="SVGID_27_" x="-416.4" y="155.4" width="466.4" height="466.4"/>
			</defs>
			<clipPath id="SVGID_6_">
				<use xlink:href="#SVGID_27_"  style="overflow:visible;"/>
			</clipPath>
			<path style="clip-path:url(#SVGID_6_);fill:#E4D9C8;" d="M-73.7,359.7c-5.5,0-13.3-2.2-20.9-12.2c-1.2-1.6-0.9-3.9,0.7-5.2
				c1.6-1.2,3.9-0.9,5.2,0.7c4.8,6.3,10.4,9.4,15.5,9.3c5.4-0.2,11-4,15.1-10.4c4.5-6.9,10.8-14.8,19.5-15.2
				c6.8-0.4,13.7,4.2,20.9,13.7c3.6,4.7,7.4,7.1,11.5,7.1c0,0,0.1,0,0.1,0c7.8,0,14.6-8.3,14.6-8.4c1.3-1.6,3.6-1.8,5.2-0.6
				c1.6,1.3,1.8,3.6,0.6,5.2c-0.4,0.5-9,11.1-20.4,11.1c-0.1,0-0.1,0-0.2,0c-6.4-0.1-12.3-3.4-17.3-10c-5.6-7.3-10.3-10.9-14.8-10.8
				c-4.1,0.2-8.4,3.9-13.6,11.8c-5.6,8.5-13.1,13.4-21,13.7C-73.3,359.7-73.5,359.7-73.7,359.7z"/>
			<path style="clip-path:url(#SVGID_6_);fill:#E4D9C8;" d="M-21.6,324.2c-1.5,0-2.8-0.9-3.4-2.3c-0.8-1.9,0.1-4,2-4.8
				c7.3-3,11.8-7.3,13-12.5c1.2-5.3-1-11.6-6-17.3c-5.5-6.2-11.5-14.3-9.5-22.8c1.6-6.6,7.7-12,18.7-16.5c5.5-2.2,8.8-5.3,9.9-9.3
				c2.1-7.5-4.1-16.3-4.2-16.4c-1.2-1.6-0.8-3.9,0.8-5.2c1.6-1.2,3.9-0.9,5.2,0.8c0.3,0.5,8.5,11.7,5.3,22.8
				c-1.8,6.2-6.5,10.9-14.2,14.1c-8.5,3.5-13.3,7.3-14.3,11.4c-0.9,4,1.6,9.1,7.9,16.2c6.8,7.6,9.5,16.1,7.7,23.9
				c-1.2,5.3-5.3,12.7-17.4,17.7C-20.7,324.1-21.2,324.2-21.6,324.2z"/>
			<path style="clip-path:url(#SVGID_6_);fill:#E4D9C8;" d="M-45.8,398.6c-5.3,0-12.5-2.1-20-10.2c-1.4-1.5-1.3-3.8,0.2-5.2
				c1.5-1.4,3.8-1.3,5.2,0.2c5.4,5.8,11,8.5,16.3,7.7c5.4-0.7,10.5-5,14.1-11.8c3.8-7.3,9.3-15.8,17.9-17c6.7-0.9,14,2.9,22.1,11.6
				c4,4.3,8.1,6.4,12.1,6c7.9-0.7,13.8-9.7,13.9-9.7c1.1-1.7,3.4-2.2,5.1-1.1c1.7,1.1,2.2,3.4,1.1,5.1c-0.3,0.5-8,12.1-19.4,13.1
				c-6.5,0.6-12.6-2.3-18.2-8.3c-6.3-6.7-11.6-9.9-15.7-9.3c-4.1,0.5-8,4.7-12.4,13.1c-4.8,9-11.7,14.6-19.6,15.7
				C-44,398.5-44.9,398.6-45.8,398.6z"/>
			<path style="clip-path:url(#SVGID_6_);fill:#E4D9C8;" d="M68.6,376.8c-0.1,0-0.3,0-0.4,0c-0.6-0.1-14.4-1.6-20.4-11.4
				c-3.4-5.5-3.7-12.2-0.8-20c3.2-8.6,3.6-14.8,1.2-18.2c-2.3-3.4-7.8-5-17.3-5.1c-10.2-0.1-18.3-3.8-22.9-10.4
				c-3.1-4.5-5.9-12.5-1.3-24.8c0.7-1.9,2.8-2.9,4.7-2.2c1.9,0.7,2.9,2.8,2.2,4.7c-2.7,7.4-2.6,13.6,0.5,18
				c3.1,4.5,9.2,7.1,16.9,7.2c8.2,0.1,18.3,1.2,23.3,8.3c3.9,5.6,3.7,13.8-0.4,25c-2,5.5-2,10.1,0.1,13.5c4.1,6.6,14.9,7.9,15,8
				c2,0.2,3.5,2,3.3,4C72.1,375.4,70.5,376.8,68.6,376.8z"/>
			<path style="clip-path:url(#SVGID_6_);fill:#E4D9C8;" d="M85.3,434.5c-1.5,0-2.9-0.9-3.5-2.4c-2.6-7.4-6.8-12.1-11.9-13.5
				c-5.2-1.5-11.6,0.4-17.6,5.3c-6.4,5.2-14.8,10.9-23.2,8.5c-6.6-1.8-11.7-8.2-15.7-19.4c-2-5.6-4.9-9-8.8-10.3
				c-7.4-2.4-16.5,3.4-16.6,3.5c-1.7,1.1-4,0.7-5.1-1c-1.1-1.7-0.7-4,1-5.1c0.5-0.3,12.1-7.9,23-4.3c6.1,2,10.6,7,13.4,14.8
				c3.1,8.7,6.7,13.7,10.8,14.8c4,1.1,9.2-1.2,16.6-7.1c7.9-6.4,16.5-8.8,24.2-6.6c5.3,1.5,12.5,5.8,16.9,18.2
				c0.7,1.9-0.3,4-2.2,4.7C86.1,434.4,85.7,434.5,85.3,434.5z"/>
			<path style="clip-path:url(#SVGID_6_);fill:#E4D9C8;" d="M126.4,501.2c-1.4,0-2.8-0.8-3.4-2.3c0-0.1-4.3-10-11.9-12.1
				c-3.9-1.1-8.3,0.2-13,3.7c-9.6,7.1-17.4,9.5-23.9,7.4c-8.3-2.7-12.1-12.1-14.5-20c-2.2-7.3-6.5-12.5-11.7-14.2
				c-5.1-1.7-11.1-0.1-17.5,4.6c-1.6,1.2-3.9,0.9-5.2-0.8c-1.2-1.6-0.9-3.9,0.8-5.2c10.5-7.8,19-7.4,24.2-5.7
				c7.6,2.5,13.4,9.2,16.4,19c2.8,9,5.9,13.9,9.8,15.1c4,1.3,9.8-0.8,17.2-6.3c6.7-4.9,13.2-6.6,19.4-4.8
				c11.1,3.1,16.4,15.9,16.7,16.4c0.8,1.9-0.1,4-2,4.8C127.3,501.1,126.8,501.2,126.4,501.2z"/>
			<path style="clip-path:url(#SVGID_6_);fill:#E4D9C8;" d="M-56.6,525.3c-4.2,0-9.3-1.1-15.2-4.3c-1.8-1-2.5-3.2-1.5-5
				c1-1.8,3.2-2.5,5-1.5c6.9,3.7,13.1,4.4,18,2c4.9-2.4,8.3-8.1,9.5-15.7c1.3-8.1,3.7-18,11.5-21.9c6.1-3,14.2-1.8,24.7,3.9
				c5.2,2.8,9.7,3.4,13.4,1.7c7.1-3.2,9.9-13.6,10-13.7c0.5-2,2.5-3.2,4.5-2.7c2,0.5,3.2,2.5,2.7,4.5c-0.1,0.6-3.6,14-14.1,18.6
				c-5.9,2.6-12.6,1.9-19.9-2c-8.1-4.4-14.1-5.6-17.9-3.8c-3.7,1.8-6.1,7-7.5,16.4c-1.6,10.1-6.4,17.6-13.5,21.1
				C-49.5,524.3-52.7,525.3-56.6,525.3z"/>
			<path style="clip-path:url(#SVGID_6_);fill:#E4D9C8;" d="M-35,472.5c-5.9,0-12.4-3.4-19.9-10.4c-4.3-4-8.6-5.8-12.5-5.1
				c-7.8,1.2-13.1,10.6-13.2,10.7c-1,1.8-3.2,2.4-5,1.4c-1.8-1-2.4-3.2-1.4-5c0.3-0.5,7.1-12.6,18.4-14.4c6.4-1,12.7,1.4,18.7,7
				c6.7,6.3,12.3,9.1,16.3,8.2c4-0.8,7.7-5.3,11.5-13.9c4.1-9.3,10.6-15.4,18.5-17c5.4-1.1,13.8-0.5,23.3,8.4
				c1.5,1.4,1.6,3.7,0.2,5.2c-1.4,1.5-3.7,1.5-5.2,0.2c-5.7-5.4-11.6-7.6-16.8-6.6c-5.3,1.1-10.1,5.7-13.2,12.7
				c-3.3,7.6-8.2,16.4-16.7,18.2C-33,472.4-34,472.5-35,472.5z"/>
			<path style="clip-path:url(#SVGID_6_);fill:#E4D9C8;" d="M91.4,311.3c-0.2,0-0.3,0-0.4,0c-2-0.2-3.5-2.1-3.2-4.1
				c0.9-7.8-0.7-13.8-4.7-17.4c-4-3.7-10.7-4.8-18.1-3.1c-8,1.8-18.1,3.1-24.5-2.7c-5.1-4.6-6.8-12.5-5.4-24.4
				c0.7-5.9-0.4-10.3-3.3-13.1c-5.6-5.6-16.3-4.3-16.4-4.3c-2,0.3-3.9-1.2-4.1-3.2c-0.3-2,1.2-3.9,3.2-4.1
				c0.6-0.1,14.4-1.7,22.5,6.4c4.6,4.5,6.4,11,5.4,19.3c-1.1,9.1-0.1,15.2,3,18c3,2.7,8.7,3.1,18,1c10-2.2,18.7-0.5,24.7,4.9
				c4.1,3.7,8.6,10.8,7,23.8C94.8,309.9,93.3,311.3,91.4,311.3z"/>
			<path style="clip-path:url(#SVGID_6_);fill:#E4D9C8;" d="M90.2,527c-0.6,0-1.3,0-1.8-0.1c-7.9-0.7-15.1-6-20.3-14.8
				c-4.7-8.2-8.8-12.2-12.9-12.6c-4.1-0.3-9.3,3-15.3,10c-5.4,6.3-11.7,9.4-17.8,9.1C10.5,518,2.4,506.7,2.1,506.3
				c-1.2-1.7-0.8-3.9,0.9-5.1c1.6-1.2,3.9-0.8,5.1,0.9c0.1,0.1,6.4,8.8,14.3,9.2c4,0.3,8-2,11.9-6.5c7.7-9,14.7-13.2,21.6-12.5
				c8.7,0.8,14.5,9.1,18.6,16.2c3.8,6.6,9.1,10.7,14.6,11.2c5.3,0.5,10.9-2.4,16-8.4c1.3-1.5,3.7-1.7,5.2-0.4
				c1.5,1.3,1.7,3.6,0.4,5.2C103,524.8,95.6,527,90.2,527z"/>
			<path style="clip-path:url(#SVGID_6_);fill:#E4D9C8;" d="M44.2,191.5c-0.2,0-0.5,0-0.7,0c-2,0-3.7-1.7-3.6-3.7
				c0-2,1.4-3.7,3.7-3.6c7.8,0,13.7-2.1,16.9-6.4c3.2-4.4,3.7-11.1,1.2-18.3c-2.6-7.8-5-17.7,0.2-24.7c4-5.5,11.7-8.1,23.7-7.9
				c5.9,0.2,10.2-1.5,12.7-4.6c4.9-6.1,2.6-16.6,2.6-16.8c-0.5-2,0.8-4,2.7-4.4c2-0.5,4,0.8,4.4,2.7c0.1,0.6,3.2,14.1-4,23
				c-4,5-10.1,7.5-18.6,7.4c-9.3-0.3-15.1,1.5-17.6,4.9c-2.4,3.3-2.1,9,0.9,18c3.3,9.7,2.4,18.6-2.3,25
				C63.2,186.4,56.8,191.5,44.2,191.5z"/>
			<path style="clip-path:url(#SVGID_6_);fill:#E4D9C8;" d="M-14.7,233.8c-1.5,0-3-1-3.5-2.5c-0.2-0.6-4.4-13.8,2-23.3
				c3.6-5.3,9.6-8.3,17.9-8.9c9.2-0.6,15-2.8,17.1-6.4c2.1-3.5,1.4-9.2-2.4-17.9c-4-9.4-4-18.3,0.2-25.1c2.9-4.7,9-10.5,22.1-11.4
				c2-0.1,3.8,1.4,3.9,3.4c0.1,2-1.4,3.8-3.4,3.9c-7.8,0.5-13.5,3.3-16.3,7.8c-2.8,4.6-2.7,11.3,0.3,18.3c3.3,7.6,6.4,17.2,1.9,24.6
				c-3.5,5.8-11,9.1-22.9,9.9c-5.9,0.4-10,2.3-12.3,5.7c-4.4,6.5-1.2,16.8-1.2,16.9c0.6,1.9-0.4,4-2.4,4.6
				C-13.9,233.7-14.3,233.8-14.7,233.8z"/>
		</g>
	</g>
	<path class="st38" d="M224.7,466.9c-44.1,0-87.4-17.2-123.3-51.8l-3.6-3.7C28.6,335,35.1,228.8,113.5,152.9
		C181.9,86.6,291.7,32.7,376,99.2c6.5,5.1,9.8,11.4,12.7,17c1.9,3.7,3.8,7.2,6.5,10.5c3.2,2.9,6.7,4.8,10.3,6.8
		c5.5,3.1,11.7,6.6,16.6,13.2c64,86.7,6.9,194.9-61.5,261.2C320,447.2,272,466.9,224.7,466.9z M117,399.3
		c65.1,62.8,158.9,59.8,228.2-7.3c62-60.1,114.7-156.9,59.1-232.2c-2.1-2.9-5.3-4.7-9.7-7.1c-4.3-2.4-9.6-5.4-14.8-10.3l-0.9-0.9
		c-4.7-5.4-7.5-10.8-9.8-15.2c-2.3-4.5-4-7.7-6.8-9.9c-73.1-57.6-171.5-7.9-233.5,52.2C59.5,235.9,53.4,329.5,114,396.3L117,399.3z"
		/>
	<path class="st12" d="M141,184.9c-1,0-1.9-0.4-2.6-1.1c-1.4-1.5-1.4-3.8,0.1-5.2c31-30,66.4-53.2,99.8-65.1c1.9-0.7,4,0.3,4.7,2.2
		c0.7,1.9-0.3,4-2.2,4.7c-32.4,11.6-66.9,34.1-97.1,63.4C142.9,184.6,141.9,184.9,141,184.9z"/>
	<circle class="st12" cx="254.5" cy="112.9" r="3.2"/>
</g>
</svg>
