<svg xmlns="http://www.w3.org/2000/svg" xmlns:xlink="http://www.w3.org/1999/xlink" fill="none" stroke="none" stroke-linecap="square" stroke-miterlimit="10" version="1.1" viewBox="0 0 64 64"><clipPath id="p.0"><path d="m0 0l64.0 0l0 64.0l-64.0 0l0 -64.0z" clip-rule="nonzero"/></clipPath><g clip-path="url(#p.0)"><path fill="#000" fill-opacity="0" fill-rule="nonzero" d="m0 0l64.0 0l0 64.0l-64.0 0z"/><path fill="#f1c232" fill-rule="nonzero" d="m64.00006 32.000004l-12.91333 4.592285l0 -9.18457zm-9.374817 -22.628147l-5.8821945 12.379542l-6.494385 -6.494385zm-22.625183 -9.371852l4.592285 12.91333l-9.184572 0zm-22.628149 9.371852l12.379543 5.8851576l-6.4943857 6.494385zm-9.371852 22.628147l12.91333 -4.592285l0 9.18457zm9.371852 22.625187l5.8851576 -12.376583l6.4943857 6.494385zm22.628149 9.374809l-4.592287 -12.913326l9.184572 0zm22.625183 -9.374809l-12.376579 -5.8821983l6.494385 -6.494385zm-38.625183 -22.625187l0 0c0 -8.8365555 7.1634445 -16.0 16.000002 -16.0c8.8365555 0 16.0 7.1634445 16.0 16.0c0 8.8365555 -7.1634445 16.0 -16.0 16.0c-8.836557 0 -16.000002 -7.1634445 -16.000002 -16.0z"/></g></svg>