<?xml version="1.0" standalone="yes"?>

<svg version="1.1" viewBox="0.0 0.0 64.0 64.0" fill="none" stroke="none" stroke-linecap="square" stroke-miterlimit="10" xmlns="http://www.w3.org/2000/svg" xmlns:xlink="http://www.w3.org/1999/xlink"><clipPath id="p.0"><path d="m0 0l64.0 0l0 64.0l-64.0 0l0 -64.0z" clip-rule="nonzero"></path></clipPath><g clip-path="url(#p.0)"><path fill="#000000" fill-opacity="0.0" d="m0 0l64.0 0l0 64.0l-64.0 0z" fill-rule="nonzero"></path><path fill="#cc0000" d="m26.359463 41.206707l0 -33.185574l0 0c0 -4.347399 2.5247383 -7.871663 5.639162 -7.871663c3.1144238 0 5.639162 3.5242636 5.639162 7.871663l0 33.185574l0 0c0 4.3474007 -2.5247383 7.871662 -5.639162 7.871662c-3.1144238 0 -5.639162 -3.5242615 -5.639162 -7.871662z" fill-rule="nonzero"></path><path fill="#cc0000" d="m31.998713 63.86554l0 0c-6.584793 0 -11.922821 -5.385502 -11.922821 -12.028858l0 0c0 -3.1902542 1.2561493 -6.24984 3.492113 -8.505688c2.235962 -2.2558517 5.2685795 -3.5231743 8.430708 -3.5231743l0 0c6.584795 0 11.922823 5.3855057 11.922823 12.028862l0 0c0 6.6433563 -5.338028 12.028858 -11.922823 12.028858z" fill-rule="nonzero"></path></g></svg>

