<?xml version="1.0" standalone="yes"?>

<svg version="1.1" viewBox="0.0 0.0 64.0 64.0" fill="none" stroke="none" stroke-linecap="square" stroke-miterlimit="10" xmlns="http://www.w3.org/2000/svg" xmlns:xlink="http://www.w3.org/1999/xlink"><clipPath id="p.0"><path d="m0 0l64.0 0l0 64.0l-64.0 0l0 -64.0z" clip-rule="nonzero"></path></clipPath><g clip-path="url(#p.0)"><path fill="#000000" fill-opacity="0.0" d="m0 0l64.0 0l0 64.0l-64.0 0z" fill-rule="nonzero"></path><path fill="#93c47d" d="m10.475213 32.003143l0 0c0 -11.889343 9.638217 -21.527561 21.527561 -21.527561l0 0c5.709461 0 11.1850815 2.268075 15.222282 6.305276c4.037201 4.037201 6.305275 9.512819 6.305275 15.222284l0 0c0 11.889339 -9.638214 21.527557 -21.527557 21.527557l0 0c-11.889343 0 -21.527561 -9.638218 -21.527561 -21.527557zm10.76378 0l0 0c0 5.944668 4.819109 10.763779 10.763781 10.763779c5.9446716 0 10.763779 -4.819111 10.763779 -10.763779c0 -5.9446735 -4.819107 -10.763781 -10.763779 -10.763781l0 0c-5.9446716 0 -10.763781 4.819107 -10.763781 10.763781z" fill-rule="nonzero"></path></g></svg>

